<svg xmlns="http://www.w3.org/2000/svg" width="163.839" height="163.839" fill-rule="evenodd" clip-rule="evenodd" image-rendering="optimizeQuality" shape-rendering="geometricPrecision" text-rendering="geometricPrecision" viewBox="0 0 4335 4335" id="drying"><circle cx="2167" cy="2167" r="2167" fill="#afe2f7"></circle><circle cx="2167" cy="2167" r="1968" fill="#e2f4ff"></circle><circle cx="2167" cy="2167" r="1736" fill="#407093"></circle><path fill="#648ba8" d="M3650 1264c14 23 28 47 41 72l-1051 606c-20 12-45 5-56-15-12-20-5-45 15-57l1051-606zM2209 3903c-14 0-28 0-42 0-13 0-27 0-41 0l0-1213c0-23 18-42 41-42 23 0 42 19 42 42l0 1213zM644 1336c13-25 27-49 41-72l1051 606c20 12 27 37 15 57-11 20-36 27-56 15l-1051-606z"></path><path fill="#2f526b" d="M1805 2590l-536 464c-37,32 -82,52 -130,59 -128,18 -258,-56 -322,-166 -89,-154 -47,-382 134,-445l669 -232c-6,-34 -9,-68 -9,-103 0,-242 155,-448 371,-525l-133 -696c-36,-187 140,-338 318,-338 179,0 355,151 319,338l-133 696c216,77 371,283 371,525 0,35 -3,69 -9,103l669 232c181,63 223,291 134,445 -64,110 -194,184 -322,166 -49,-7 -93,-27 -130,-59l-536 -464c-98,84 -224,134 -363,134 -138,0 -264,-50 -362,-134z"></path><circle cx="2167" cy="2167" r="522" fill="#8eb7f9"></circle><path fill="#a3c5fb" d="M1884 2167c0,23 -19,42 -42,42 -23,0 -42,-19 -42,-42 0,-101 41,-193 108,-259 66,-67 158,-108 259,-108 23,0 42,19 42,42 0,23 -19,42 -42,42 -78,0 -149,31 -200,83 -52,51 -83,122 -83,200z"></path><path fill="#afe2f7" d="M2167 643l0 0c164 0 315 136 285 297l-139 726c-46-13-95-21-146-21-50 0-99 8-145 21l-139-726c-30-161 121-297 284-297zM3488 2930l0 0c-82 141-276 204-399 97l-560-483c70-67 122-154 146-252l698 243c154 54 196 253 115 395zM847 2930l0 0c-81-142-39-341 115-395l698-243c24 98 76 185 146 252l-560 483c-123 107-317 44-399-97z"></path><path fill="#d0eefb" d="M1010 2820c0 23-18 42-41 42-23 0-42-19-42-42 0-55 22-106 59-142 36-37 87-59 143-59 23 0 41 18 41 41 0 23-18 42-41 42-33 0-63 13-84 35-22 21-35 51-35 83zM2079 971c0 23-18 42-41 42-23 0-42-19-42-42 0-56 23-106 59-143 37-36 87-59 143-59 23 0 41 19 41 42 0 23-18 42-41 42-33 0-63 13-84 34-21 22-35 51-35 84zM3243 2692c-23 0-41-19-41-42 0-23 18-42 41-42 56 0 107 23 143 59 37 37 59 87 59 143 0 23-18 42-41 42-23 0-42-19-42-42 0-33-13-62-35-84-21-21-51-34-84-34z"></path></svg>