<svg width="101" height="38" viewBox="0 0 101 38" fill="none" xmlns="http://www.w3.org/2000/svg">
<path d="M66.0673 3.30358C65.4845 2.60402 64.8959 1.91028 64.3014 1.22237C64.2952 1.21504 64.2907 1.20636 64.2885 1.19706C64.2862 1.18777 64.2862 1.17816 64.2884 1.16907C64.2906 1.15998 64.2949 1.15169 64.3011 1.14493C64.3073 1.13817 64.315 1.13314 64.3237 1.13029C64.4744 1.08161 64.6024 1.10489 64.7075 1.20014C67.8752 4.07775 70.209 7.5385 71.709 11.5824C71.7141 11.5962 71.716 11.611 71.7147 11.6256C71.7134 11.6401 71.7089 11.6541 71.7015 11.6664C71.6941 11.6787 71.684 11.689 71.672 11.6965C71.6601 11.7039 71.6466 11.7083 71.6326 11.7094L70.3747 11.7904C70.1868 11.802 70.0668 11.7126 70.0148 11.5221C69.4299 9.36624 68.5907 7.32207 67.4973 5.38955C67.3646 5.15566 67.1661 4.85457 66.9017 4.48627C66.7605 4.28942 66.6241 4.08939 66.4925 3.88619C66.3471 3.66288 66.2053 3.46868 66.0673 3.30358Z" fill="#B05A39"/>
<path d="M30.4001 11.6903C30.3797 11.6897 30.3599 11.6839 30.3423 11.6735C30.3246 11.6631 30.3097 11.6483 30.2987 11.6303C30.2876 11.6123 30.2808 11.5917 30.2788 11.5702C30.2768 11.5486 30.2796 11.5267 30.2871 11.5062C30.5737 10.7357 30.9033 9.96315 31.2759 9.18845C31.6347 8.44232 32.0424 7.70943 32.4989 6.98976C33.5721 5.30172 34.7956 3.7248 36.1692 2.25901C36.4845 1.92352 36.8226 1.61237 37.1836 1.32556C37.2961 1.2356 37.4495 1.17263 37.6438 1.13665C37.7276 1.12183 37.7409 1.14511 37.6836 1.2065C34.898 4.20158 32.9877 7.63746 31.9527 11.5141C31.9352 11.5803 31.898 11.6387 31.8474 11.6797C31.7967 11.7206 31.7356 11.7418 31.674 11.7396L30.4001 11.6903Z" fill="#2C627F"/>
<path d="M48.1422 24.4507L44.6979 19.4707C44.6928 19.4634 44.6859 19.4575 44.678 19.4535C44.67 19.4495 44.6611 19.4475 44.652 19.4476C44.643 19.4478 44.634 19.4501 44.6259 19.4544C44.6179 19.4587 44.6109 19.4648 44.6056 19.4723L38.639 27.8019C38.6086 27.8446 38.5684 27.8793 38.5219 27.9034C38.4754 27.9274 38.4238 27.94 38.3715 27.94H34.0037C33.8466 27.94 33.8136 27.8765 33.9049 27.7495C36.5695 24.0221 39.2558 20.2544 41.9639 16.4465C42.1443 16.1925 42.3407 15.9517 42.553 15.7242C43.1963 15.0363 43.9538 14.7135 44.8253 14.7558C45.3848 14.7833 45.8949 14.9648 46.3556 15.3003C46.7738 15.6041 47.1587 16.0105 47.51 16.5195C50.0748 20.2322 52.6709 23.984 55.2983 27.7749C55.3556 27.8585 55.3338 27.9003 55.233 27.9003L40.5196 27.94C40.3986 27.94 40.3726 27.8913 40.4416 27.794L42.6756 24.638C42.7084 24.5921 42.7519 24.5541 42.803 24.5272C42.854 24.5002 42.9113 24.4849 42.9702 24.4824C44.6486 24.4084 46.3614 24.4184 48.1088 24.5126C48.1618 24.5158 48.173 24.4951 48.1422 24.4507Z" fill="#0E85C4"/>
<path d="M14.2106 24.4491C14.992 24.4735 15.7398 24.4497 16.4543 24.3777C16.6878 24.3544 16.8391 24.2311 16.9081 24.0078C17.114 23.3432 16.9909 22.9093 16.5387 22.7061C16.3582 22.6256 15.9867 22.5822 15.424 22.5759C11.8359 22.5314 9.58326 22.5203 8.66606 22.5425C7.79238 22.5637 6.99408 22.4568 6.27115 22.2219C4.64483 21.6959 3.77911 20.6804 3.67402 19.1754C3.61563 18.3288 3.77965 17.5848 4.16606 16.9434C4.58113 16.2523 5.21542 15.7475 6.06892 15.4289C6.86723 15.1294 7.64005 14.9717 8.3874 14.9559C12.3279 14.8712 16.3179 14.8606 20.3571 14.9241C20.4378 14.9262 20.4543 14.959 20.4065 15.0225L18.0896 18.1293C17.9686 18.2912 17.8035 18.3743 17.5944 18.3785C14.7972 18.4378 11.9506 18.4426 9.05459 18.3928C8.6703 18.3854 8.29132 18.4177 7.91765 18.4896C7.86641 18.4988 7.82098 18.526 7.79026 18.5658C7.40279 19.0611 7.47232 19.4972 7.99886 19.8739C8.11351 19.9554 8.29132 19.9872 8.5323 19.9692C8.81362 19.947 8.98984 19.9364 9.06096 19.9374C11.716 19.9851 14.3709 20.02 17.0259 20.0422C17.5005 20.0465 18.0058 20.147 18.5419 20.3438C19.0917 20.5449 19.5312 20.7973 19.8603 21.1011C20.2085 21.4218 20.4723 21.8033 20.6517 22.2457C20.8046 22.6214 20.8847 23.0669 20.8922 23.5824C20.9145 25.2503 20.2648 26.4526 18.9431 27.1892C18.3083 27.5426 17.4251 27.7792 16.2934 27.8988C15.5588 27.9771 14.821 28.0099 14.0801 27.9972C13.3465 27.9855 12.975 27.9797 12.9654 27.9797C9.81468 27.9755 6.61616 27.9617 3.36988 27.9385C3.28071 27.9385 3.26213 27.9035 3.31415 27.8337L5.6995 24.6746C5.81945 24.5158 5.98718 24.4391 6.20268 24.4444C7.56362 24.4782 8.90067 24.4941 10.2138 24.492C10.4145 24.492 11.0806 24.4766 12.2122 24.446C12.8778 24.428 13.544 24.429 14.2106 24.4491Z" fill="#1184C0"/>
<path d="M35.6263 14.913C36.2569 14.9193 36.8678 14.9257 37.4591 14.932C37.5653 14.9331 37.5854 14.9749 37.5196 15.0574C37.0228 15.6861 36.5557 16.3089 36.1183 16.9259C35.8137 17.3545 35.4777 17.7551 35.1104 18.1277C34.966 18.2748 34.8004 18.3647 34.6135 18.3975C34.4193 18.4314 34.2229 18.4499 34.0244 18.4531C32.8832 18.4669 31.776 18.4552 30.7027 18.4182C30.4458 18.4097 30.319 18.5335 30.3221 18.7896C30.3381 20.0882 30.3492 21.3826 30.3556 22.6727C30.3567 22.7013 30.3466 23.541 30.3253 25.192C30.3137 26.0525 30.3328 26.8917 30.3827 27.7098C30.3844 27.7394 30.3801 27.7691 30.37 27.797C30.3599 27.8249 30.3442 27.8504 30.3239 27.8719C30.3036 27.8935 30.2792 27.9106 30.252 27.9224C30.2249 27.9341 30.1956 27.9401 30.1661 27.94H26.5801C26.5168 27.94 26.456 27.9146 26.4112 27.8693C26.3664 27.8241 26.3413 27.7627 26.3413 27.6987L26.3126 18.4849C26.3126 18.4638 26.304 18.4436 26.2888 18.4287C26.2736 18.4138 26.2529 18.4055 26.2314 18.4055L20.4527 18.3753C20.3306 18.3753 20.3057 18.3266 20.3779 18.2293L22.7282 15.0749C22.7633 15.028 22.8093 14.9899 22.8626 14.9635C22.9159 14.937 22.9751 14.923 23.0355 14.9225C27.233 14.878 31.4299 14.8749 35.6263 14.913Z" fill="#0E85C4"/>
<path d="M56.7951 15.5115C56.2229 15.4194 55.6178 15.4273 54.9798 15.5353C54.7579 15.5734 54.5366 15.5707 54.3158 15.5273C53.8115 15.4289 53.5207 15.6369 53.4432 16.1512C53.3901 16.5015 53.4559 16.8074 53.6406 17.0688C53.7935 17.2847 53.8704 17.3937 53.8715 17.3958C54.724 18.8246 55.6374 20.2126 56.612 21.5598C56.7054 21.69 56.9925 22.0266 57.4734 22.5695C57.8577 23.0055 58.1725 23.4929 58.4177 24.0316C58.5387 24.2972 58.725 24.5057 58.9766 24.6571C59.1082 24.7364 59.2133 24.8417 59.2919 24.973C59.7038 25.6535 60.2107 26.2451 60.8126 26.7478C61.1332 27.0166 61.4676 27.1801 61.8158 27.2383C62.7531 27.3939 63.5578 27.0822 64.2298 26.3033C64.4272 26.0736 64.5902 25.8514 64.7186 25.6365C64.931 25.2799 65.0769 25.0497 65.1565 24.946C65.6565 24.2919 65.9846 23.8183 66.1406 23.5252C66.4655 22.9124 66.9463 22.2673 67.5833 21.59C67.8444 21.3117 68.0844 20.9587 68.303 20.5311C68.4538 20.2348 68.6284 19.966 68.8269 19.7247C69.0913 19.403 69.3322 19.0632 69.5499 18.7055C69.7866 18.315 70.0674 17.9589 70.3922 17.6371C70.4166 17.6128 70.4416 17.5683 70.467 17.5038C70.4798 17.471 70.5005 17.4308 70.5292 17.3831C70.975 16.6381 70.7983 16.1385 69.9989 15.8845C69.8068 15.8231 69.622 15.8401 69.4448 15.9353C69.2218 16.0549 68.9851 16.1491 68.7346 16.2179C68.4862 16.2878 68.3163 16.3497 68.225 16.4036C68.0392 16.5158 67.9081 16.6471 67.8317 16.7973C67.7415 16.9762 67.6411 17.1048 67.5307 17.1831C67.4809 17.2191 67.4448 17.2556 67.4225 17.2926C67.1454 17.7456 66.8551 18.1901 66.5514 18.6261C66.4028 18.8399 66.2664 19.0828 66.1422 19.3548C66.0254 19.6088 65.898 19.858 65.76 20.1025C65.7361 20.1461 65.6992 20.1834 65.6534 20.2105C65.388 20.3671 65.1666 20.5671 64.9893 20.8105C64.7781 21.0984 64.6135 21.2968 64.4957 21.4059C64.191 21.6863 63.8959 21.9752 63.6104 22.2726C63.3269 22.5679 63.0058 22.8145 62.647 23.0124L68.2632 15.0368C68.294 14.9938 68.338 14.9634 68.3874 14.9511C68.5849 14.9045 68.8476 14.8818 69.1756 14.8828C70.4527 14.887 71.6969 14.8966 72.9081 14.9114C73.0228 14.9124 73.0472 14.9601 72.9814 15.0543C70.2616 18.9225 67.5499 22.7579 64.846 26.5605C64.7452 26.7023 64.5578 26.9124 64.2839 27.1907C63.3275 28.1591 62.2409 28.3924 61.0244 27.8908C60.5605 27.6992 60.1199 27.3082 59.7027 26.7176C56.9755 22.8515 54.2903 18.9971 51.647 15.1543C51.5472 15.0093 51.5859 14.9331 51.7632 14.9257C53.2728 14.8696 54.751 14.8675 56.1979 14.9193C56.2519 14.9214 56.3025 14.9392 56.3428 14.9701C56.5318 15.1162 56.6825 15.2966 56.7951 15.5115Z" fill="#1A82B1"/>
<path d="M95.3237 18.0578C95.2165 18.2642 95.0992 18.37 94.9718 18.3753C92.8211 18.4568 89.8099 18.4594 85.9384 18.3832C85.5965 18.3758 85.3582 18.3965 85.2234 18.4452C84.9325 18.5499 84.7781 18.7632 84.76 19.0849C84.7462 19.322 84.8078 19.522 84.9447 19.685C85.0987 19.8691 85.3094 19.9617 85.5769 19.9628C87.9389 19.9702 90.3009 19.9834 92.6629 20.0025C93.8465 20.012 94.8264 20.1046 95.6024 20.2803C96.8731 20.674 97.6581 21.4678 97.9575 22.6616C98.2547 23.8469 98.0955 24.9312 97.4798 25.9143C97.1379 26.4604 96.6565 26.9007 96.0355 27.2351C95.2053 27.6818 94.32 27.9167 93.3794 27.94C89.6162 28.031 85.3301 28.0183 80.5212 27.9019C80.467 27.9008 80.4559 27.8791 80.4877 27.8368L82.8349 24.7221C82.9771 24.5337 83.1724 24.4411 83.4208 24.4443C86.6937 24.4951 89.9155 24.4951 93.0864 24.4443C93.4633 24.439 93.7377 24.3639 93.9097 24.2189C94.19 23.9839 94.2754 23.6532 94.1661 23.2267C94.0737 22.869 93.8561 22.6584 93.5132 22.5949C93.4835 22.5896 93.2069 22.5838 92.6836 22.5774C90.9798 22.5563 88.5047 22.5446 85.2584 22.5425C84.4336 22.5414 83.622 22.361 82.8237 22.0012C81.673 21.4805 81.0355 20.5883 80.9113 19.3246C80.7329 17.5043 81.4522 16.2221 83.0689 15.4781C83.3736 15.3374 83.786 15.2082 84.3062 15.0908C84.682 15.0061 85.1087 14.9579 85.5864 14.9463C89.5896 14.8563 93.5933 14.8479 97.5976 14.9209C97.6528 14.922 97.6639 14.9442 97.631 14.9876L95.3237 18.0578Z" fill="#1184C0"/>
<path d="M78.424 14.9257H74.7106C74.6236 14.9257 74.553 14.996 74.553 15.0828V27.7828C74.553 27.8696 74.6236 27.94 74.7106 27.94H78.424C78.5111 27.94 78.5816 27.8696 78.5816 27.7828V15.0828C78.5816 14.996 78.5111 14.9257 78.424 14.9257Z" fill="#0E85C4"/>
<path d="M56.795 15.5115L62.2043 23.468C62.2092 23.475 62.2157 23.4808 62.2233 23.4847C62.231 23.4887 62.2395 23.4907 62.2482 23.4907C62.2569 23.4907 62.2656 23.4887 62.2734 23.4847C62.2813 23.4808 62.2881 23.475 62.2934 23.468L62.6469 23.0124C63.0058 22.8145 63.3269 22.5679 63.6103 22.2726C63.8959 21.9752 64.191 21.6863 64.4957 21.4058C64.6135 21.2968 64.778 21.0984 64.9893 20.8105C65.1666 20.5671 65.3879 20.3671 65.6533 20.2105C65.6992 20.1834 65.7361 20.1461 65.76 20.1025C65.898 19.858 66.0254 19.6088 66.1422 19.3548C66.2664 19.0828 66.4028 18.8399 66.5514 18.6261C66.855 18.1901 67.1454 17.7456 67.4224 17.2926C67.4447 17.2556 67.4808 17.2191 67.5307 17.1831C67.6411 17.1048 67.7414 16.9762 67.8317 16.7973C67.9081 16.647 68.0392 16.5158 68.225 16.4036C68.3163 16.3497 68.4861 16.2877 68.7345 16.2179C68.9851 16.1491 69.2218 16.0549 69.4447 15.9353C69.622 15.8401 69.8067 15.8231 69.9989 15.8845C70.7982 16.1385 70.975 16.638 70.5291 17.3831C70.5005 17.4307 70.4797 17.471 70.467 17.5038C70.4415 17.5683 70.4166 17.6128 70.3922 17.6371C70.0673 17.9588 69.7865 18.315 69.5498 18.7055C69.3322 19.0632 69.0912 19.4029 68.8269 19.7247C68.6284 19.966 68.4537 20.2348 68.303 20.5311C68.0843 20.9587 67.8444 21.3116 67.5833 21.59C66.9463 22.2673 66.4654 22.9124 66.1406 23.5252C65.9845 23.8183 65.6565 24.2919 65.1565 24.946C65.0769 25.0497 64.9309 25.2799 64.7186 25.6365C64.5902 25.8514 64.4272 26.0736 64.2298 26.3033C63.5578 27.0822 62.7531 27.3939 61.8157 27.2383C61.4675 27.1801 61.1331 27.0166 60.8126 26.7478C60.2106 26.2451 59.7037 25.6535 59.2918 24.973C59.2133 24.8417 59.1082 24.7364 58.9766 24.657C58.725 24.5057 58.5387 24.2972 58.4176 24.0316C58.1724 23.4929 57.8577 23.0055 57.4734 22.5695C56.9925 22.0266 56.7053 21.69 56.6119 21.5598C55.6374 20.2126 54.7239 18.8246 53.8715 17.3958C53.8704 17.3937 53.7934 17.2847 53.6406 17.0688C53.4559 16.8074 53.39 16.5015 53.4431 16.1512C53.5206 15.6369 53.8115 15.4289 54.3157 15.5273C54.5365 15.5707 54.7579 15.5734 54.9797 15.5353C55.6178 15.4273 56.2228 15.4194 56.795 15.5115Z" fill="#0B86C8"/>
<path d="M62.4001 36.0585C64.4086 34.2011 66.1326 32.1532 67.5721 29.9149C67.5863 29.8933 67.6054 29.8757 67.6276 29.8635C67.6498 29.8513 67.6745 29.845 67.6995 29.845L71.5498 29.8466C71.5785 29.8468 71.6067 29.854 71.632 29.8677C71.6572 29.8813 71.6788 29.9009 71.6948 29.9248C71.7108 29.9487 71.7207 29.9762 71.7238 30.0049C71.7268 30.0336 71.7228 30.0626 71.7122 30.0895C71.0838 31.6706 70.3571 33.1745 69.5323 34.6012C69.2202 35.1409 68.8539 35.6394 68.4336 36.0966C68.3987 36.1342 68.3508 36.157 68.2998 36.1601C66.3221 36.2712 64.363 36.2574 62.4224 36.1188C62.3672 36.1156 62.3598 36.0955 62.4001 36.0585Z" fill="#C35230"/>
<path d="M34.7027 30.4292C34.398 31.0102 34.433 31.5505 34.8078 32.05C34.9277 32.2109 35.0089 32.3892 35.0514 32.585C35.1427 33.0136 35.2738 33.4206 35.4447 33.8058C35.6294 34.2249 35.7191 34.5149 35.7138 34.6758C35.7 35.0536 35.4787 35.3187 35.0498 35.4711C34.8759 35.532 34.712 35.5492 34.5817 35.5203C34.2218 35.4399 33.9145 35.2806 33.6597 35.0425C33.631 35.015 33.5084 34.8329 33.2918 34.4964C33.0519 34.1249 32.6878 34.0143 32.1995 34.1646C31.5296 32.9888 30.9484 31.7659 30.4559 30.4959C30.4516 30.4853 30.4007 30.3795 30.303 30.1784C30.1767 29.917 30.2765 29.7974 30.6024 29.8196C30.8476 29.8365 30.9803 29.845 31.0004 29.845C31.9718 29.8408 32.9426 29.8434 33.9129 29.8529C34.1188 29.854 34.2786 29.9021 34.3922 29.9974C34.528 30.1106 34.6315 30.2546 34.7027 30.4292Z" fill="#2E668D"/>
<path d="M34.7027 30.4292C35.984 32.5141 37.5504 34.3641 39.4018 35.9791C39.5302 36.0902 39.509 36.149 39.3381 36.1553C37.4272 36.2188 35.5233 36.2199 33.6263 36.1585C33.5754 36.1565 33.5268 36.1343 33.4909 36.0966C32.9559 35.5304 32.5254 34.8864 32.1995 34.1646C32.6878 34.0143 33.052 34.1249 33.2919 34.4964C33.5084 34.8329 33.6311 35.015 33.6597 35.0425C33.9145 35.2806 34.2218 35.4399 34.5817 35.5203C34.712 35.5492 34.876 35.532 35.0498 35.4711C35.4787 35.3187 35.7001 35.0536 35.7139 34.6758C35.7192 34.5149 35.6295 34.2249 35.4447 33.8058C35.2738 33.4206 35.1427 33.0137 35.0514 32.585C35.009 32.3892 34.9278 32.2109 34.8078 32.05C34.4331 31.5505 34.398 31.0102 34.7027 30.4292Z" fill="#2E668D"/>
</svg>
