<svg width="100" height="38" viewBox="0 0 100 38" fill="none" xmlns="http://www.w3.org/2000/svg">
<path d="M65.7214 3.3308C65.1386 2.63124 64.5499 1.9375 63.9555 1.24959C63.9492 1.24226 63.9448 1.23358 63.9425 1.22428C63.9403 1.21499 63.9402 1.20538 63.9424 1.19629C63.9446 1.1872 63.949 1.17891 63.9552 1.17215C63.9613 1.16539 63.9691 1.16036 63.9777 1.15751C64.1285 1.10883 64.2564 1.13211 64.3615 1.22736C67.5292 4.10497 69.8631 7.56572 71.3631 11.6096C71.3681 11.6234 71.3701 11.6382 71.3688 11.6528C71.3675 11.6674 71.3629 11.6813 71.3555 11.6936C71.3481 11.7059 71.338 11.7162 71.3261 11.7237C71.3142 11.7311 71.3007 11.7356 71.2867 11.7366L70.0287 11.8176C69.8408 11.8292 69.7208 11.7398 69.6688 11.5493C69.0839 9.39347 68.2447 7.34929 67.1513 5.41678C67.0186 5.18288 66.8201 4.88179 66.5558 4.51349C66.4146 4.31664 66.2782 4.11661 66.1465 3.91341C66.0011 3.6901 65.8594 3.4959 65.7214 3.3308Z" fill="black"/>
<path d="M30.0542 11.7174C30.0338 11.7168 30.014 11.711 29.9963 11.7006C29.9787 11.6902 29.9638 11.6754 29.9527 11.6574C29.9417 11.6394 29.9349 11.6188 29.9329 11.5973C29.9309 11.5757 29.9337 11.5538 29.9411 11.5333C30.2278 10.7628 30.5574 9.99025 30.93 9.21555C31.2888 8.46942 31.6964 7.73653 32.1529 7.01686C33.2262 5.32882 34.4496 3.7519 35.8233 2.28611C36.1386 1.95062 36.4767 1.63947 36.8376 1.35266C36.9501 1.2627 37.1035 1.19973 37.2978 1.16375C37.3817 1.14893 37.3949 1.17221 37.3376 1.2336C34.5521 4.22868 32.6418 7.66456 31.6067 11.5412C31.5892 11.6074 31.5521 11.6658 31.5014 11.7068C31.4508 11.7477 31.3896 11.7689 31.3281 11.7667L30.0542 11.7174Z" fill="black"/>
<path d="M47.7961 24.4778L44.3519 19.4979C44.3467 19.4906 44.3399 19.4847 44.3319 19.4807C44.3239 19.4767 44.315 19.4747 44.3059 19.4748C44.2969 19.475 44.288 19.4773 44.2799 19.4816C44.2718 19.4859 44.2648 19.492 44.2595 19.4994L38.293 27.8291C38.2625 27.8717 38.2224 27.9065 38.1758 27.9305C38.1293 27.9546 38.0777 27.9671 38.0254 27.9672H33.6576C33.5005 27.9672 33.4676 27.9037 33.5589 27.7767C36.2234 24.0492 38.9097 20.2816 41.6178 16.4737C41.7983 16.2197 41.9946 15.9789 42.207 15.7514C42.8503 15.0634 43.6077 14.7406 44.4793 14.783C45.0387 14.8105 45.5488 14.992 46.0095 15.3275C46.4278 15.6312 46.8126 16.0376 47.164 16.5467C49.7287 20.2593 52.3248 24.0111 54.9522 27.8021C55.0095 27.8857 54.9877 27.9275 54.8869 27.9275L40.1735 27.9672C40.0525 27.9672 40.0265 27.9185 40.0955 27.8211L42.3296 24.6652C42.3623 24.6192 42.4058 24.5813 42.4569 24.5543C42.508 24.5274 42.5652 24.5121 42.6242 24.5096C44.3025 24.4355 46.0154 24.4456 47.7627 24.5398C47.8158 24.5429 47.8269 24.5223 47.7961 24.4778Z" fill="black"/>
<path d="M13.8647 24.4762C14.646 24.5006 15.3939 24.4768 16.1083 24.4048C16.3419 24.3815 16.4931 24.2582 16.5621 24.0349C16.7681 23.3703 16.645 22.9364 16.1927 22.7332C16.0123 22.6527 15.6407 22.6093 15.0781 22.603C11.49 22.5585 9.23731 22.5474 8.32011 22.5696C7.44644 22.5908 6.64814 22.4839 5.92521 22.249C4.29888 21.723 3.43317 20.7075 3.32807 19.2025C3.26969 18.3559 3.4337 17.6119 3.82011 16.9705C4.23518 16.2794 4.86947 15.7746 5.72298 15.456C6.52128 15.1565 7.2941 14.9988 8.04145 14.983C11.982 14.8983 15.9719 14.8877 20.0112 14.9512C20.0919 14.9533 20.1083 14.9861 20.0606 15.0496L17.7437 18.1564C17.6227 18.3183 17.4576 18.4014 17.2485 18.4056C14.4512 18.4649 11.6046 18.4697 8.70865 18.4199C8.32436 18.4125 7.94538 18.4448 7.5717 18.5167C7.52046 18.5259 7.47503 18.5531 7.44431 18.5929C7.05684 19.0882 7.12637 19.5243 7.65291 19.901C7.76756 19.9825 7.94538 20.0143 8.18635 19.9963C8.46767 19.9741 8.64389 19.9635 8.71501 19.9645C11.37 20.0122 14.025 20.0471 16.68 20.0693C17.1545 20.0736 17.6598 20.1741 18.1959 20.3709C18.7458 20.572 19.1853 20.8244 19.5144 21.1282C19.8626 21.4489 20.1264 21.8304 20.3058 22.2728C20.4586 22.6485 20.5388 23.094 20.5462 23.6095C20.5685 25.2774 19.9188 26.4797 18.5972 27.2163C17.9624 27.5697 17.0791 27.8063 15.9475 27.9259C15.2129 28.0042 14.4751 28.037 13.7341 28.0243C13.0006 28.0126 12.629 28.0068 12.6195 28.0068C9.46873 28.0026 6.27022 27.9888 3.02393 27.9656C2.93476 27.9656 2.91618 27.9306 2.9682 27.8608L5.35355 24.7017C5.47351 24.5429 5.64124 24.4662 5.85673 24.4715C7.21767 24.5053 8.55472 24.5212 9.86788 24.5191C10.0685 24.5191 10.7347 24.5037 11.8663 24.4731C12.5319 24.4551 13.198 24.4561 13.8647 24.4762Z" fill="black"/>
<path d="M35.2802 14.9402C35.9108 14.9465 36.5217 14.9529 37.113 14.9592C37.2192 14.9603 37.2393 15.0021 37.1735 15.0847C36.6767 15.7133 36.2096 16.3361 35.7723 16.9531C35.4676 17.3818 35.1316 17.7824 34.7643 18.1549C34.6199 18.302 34.4543 18.392 34.2675 18.4248C34.0732 18.4586 33.8768 18.4771 33.6783 18.4803C32.5371 18.4941 31.4299 18.4824 30.3567 18.4454C30.0998 18.4369 29.9729 18.5608 29.9761 18.8169C29.992 20.1154 30.0032 21.4098 30.0095 22.6999C30.0106 22.7285 30.0005 23.5683 29.9793 25.2193C29.9676 26.0797 29.9867 26.9189 30.0366 27.737C30.0383 27.7667 30.034 27.7963 30.0239 27.8242C30.0138 27.8521 29.9981 27.8776 29.9778 27.8991C29.9576 27.9207 29.9331 27.9379 29.906 27.9496C29.8788 27.9613 29.8496 27.9673 29.82 27.9672H26.234C26.1707 27.9672 26.1099 27.9418 26.0651 27.8966C26.0204 27.8513 25.9952 27.7899 25.9952 27.7259L25.9665 18.5121C25.9665 18.491 25.958 18.4708 25.9427 18.4559C25.9275 18.4411 25.9069 18.4327 25.8853 18.4327L20.1067 18.4025C19.9846 18.4025 19.9596 18.3539 20.0318 18.2565L22.3821 15.1021C22.4172 15.0553 22.4632 15.0171 22.5166 14.9907C22.5699 14.9643 22.629 14.9502 22.6895 14.9497C26.8869 14.9053 31.0838 14.9021 35.2802 14.9402Z" fill="black"/>
<path d="M56.4491 15.5387C55.8769 15.4466 55.2718 15.4545 54.6338 15.5625C54.4119 15.6006 54.1906 15.598 53.9698 15.5546C53.4655 15.4561 53.1747 15.6641 53.0972 16.1784C53.0441 16.5288 53.1099 16.8346 53.2946 17.096C53.4475 17.3119 53.5244 17.4209 53.5255 17.423C54.3779 18.8518 55.2914 20.2398 56.2659 21.5871C56.3594 21.7172 56.6465 22.0538 57.1274 22.5967C57.5117 23.0327 57.8265 23.5201 58.0717 24.0588C58.1927 24.3244 58.379 24.5329 58.6306 24.6843C58.7622 24.7637 58.8673 24.869 58.9459 25.0002C59.3578 25.6807 59.8647 26.2723 60.4666 26.775C60.7872 27.0438 61.1216 27.2073 61.4698 27.2656C62.4071 27.4211 63.2118 27.1094 63.8838 26.3305C64.0812 26.1009 64.2442 25.8786 64.3726 25.6638C64.5849 25.3071 64.7309 25.0769 64.8105 24.9732C65.3105 24.3192 65.6386 23.8455 65.7946 23.5524C66.1194 22.9396 66.6003 22.2946 67.2373 21.6172C67.4984 21.3389 67.7383 20.9859 67.957 20.5584C68.1078 20.262 68.2824 19.9932 68.4809 19.7519C68.7452 19.4302 68.9862 19.0905 69.2038 18.7327C69.4406 18.3422 69.7214 17.9861 70.0462 17.6643C70.0706 17.64 70.0956 17.5956 70.121 17.531C70.1338 17.4982 70.1545 17.458 70.1831 17.4103C70.629 16.6653 70.4523 16.1657 69.6529 15.9117C69.4607 15.8504 69.276 15.8673 69.0987 15.9625C68.8758 16.0821 68.6391 16.1763 68.3886 16.2451C68.1402 16.315 67.9703 16.3769 67.879 16.4309C67.6932 16.543 67.5621 16.6743 67.4857 16.8246C67.3955 17.0034 67.2951 17.132 67.1847 17.2103C67.1348 17.2463 67.0987 17.2828 67.0765 17.3199C66.7994 17.7728 66.509 18.2173 66.2054 18.6534C66.0568 18.8671 65.9204 19.11 65.7962 19.382C65.6794 19.636 65.552 19.8853 65.414 20.1297C65.3901 20.1734 65.3532 20.2107 65.3073 20.2377C65.042 20.3943 64.8206 20.5943 64.6433 20.8378C64.4321 21.1256 64.2675 21.3241 64.1497 21.4331C63.845 21.7135 63.5499 22.0025 63.2644 22.2999C62.9809 22.5951 62.6598 22.8417 62.301 23.0396L67.9172 15.064C67.9479 15.0211 67.992 14.9907 68.0414 14.9783C68.2389 14.9317 68.5016 14.909 68.8296 14.91C70.1067 14.9143 71.3509 14.9238 72.5621 14.9386C72.6768 14.9397 72.7012 14.9873 72.6354 15.0815C69.9156 18.9497 67.2038 22.7851 64.5 26.5877C64.3992 26.7295 64.2118 26.9396 63.9379 27.2179C62.9814 28.1863 61.8949 28.4197 60.6784 27.918C60.2145 27.7265 59.7739 27.3354 59.3567 26.7449C56.6295 22.8788 53.9443 19.0243 51.301 15.1815C51.2012 15.0365 51.2399 14.9603 51.4172 14.9529C52.9268 14.8968 54.405 14.8947 55.8519 14.9465C55.9059 14.9486 55.9565 14.9664 55.9968 14.9973C56.1858 15.1434 56.3365 15.3238 56.4491 15.5387Z" fill="black"/>
<path d="M94.9777 18.0849C94.8705 18.2913 94.7532 18.3971 94.6258 18.4024C92.475 18.4839 89.4639 18.4865 85.5924 18.4103C85.2505 18.4029 85.0122 18.4236 84.8774 18.4723C84.5865 18.577 84.4321 18.7903 84.414 19.112C84.4002 19.3491 84.4618 19.5491 84.5987 19.7121C84.7527 19.8962 84.9634 19.9888 85.2309 19.9899C87.5929 19.9973 89.9549 20.0105 92.3169 20.0296C93.5005 20.0391 94.4804 20.1317 95.2564 20.3074C96.5271 20.7011 97.3121 21.4949 97.6115 22.6887C97.9087 23.874 97.7495 24.9583 97.1338 25.9414C96.7919 26.4875 96.3105 26.9278 95.6895 27.2622C94.8593 27.7089 93.974 27.9438 93.0334 27.9671C89.2702 28.0581 84.9841 28.0454 80.1752 27.929C80.121 27.9279 80.1099 27.9062 80.1417 27.8639L82.4889 24.7492C82.6311 24.5608 82.8264 24.4682 83.0748 24.4714C86.3477 24.5222 89.5695 24.5222 92.7404 24.4714C93.1173 24.4661 93.3917 24.391 93.5637 24.246C93.8439 24.011 93.9294 23.6803 93.8201 23.2538C93.7277 22.8961 93.5101 22.6855 93.1672 22.622C93.1375 22.6167 92.8609 22.6109 92.3376 22.6045C90.6338 22.5834 88.1587 22.5717 84.9124 22.5696C84.0876 22.5685 83.276 22.3881 82.4777 22.0283C81.327 21.5076 80.6895 20.6154 80.5653 19.3517C80.3869 17.5314 81.1062 16.2492 82.7229 15.5052C83.0276 15.3645 83.44 15.2353 83.9602 15.1179C84.336 15.0332 84.7627 14.985 85.2404 14.9734C89.2436 14.8834 93.2473 14.875 97.2516 14.948C97.3068 14.9491 97.3179 14.9713 97.285 15.0147L94.9777 18.0849Z" fill="black"/>
<path d="M78.0781 14.9529H74.3647C74.2776 14.9529 74.207 15.0232 74.207 15.11V27.81C74.207 27.8968 74.2776 27.9672 74.3647 27.9672H78.0781C78.1651 27.9672 78.2357 27.8968 78.2357 27.81V15.11C78.2357 15.0232 78.1651 14.9529 78.0781 14.9529Z" fill="black"/>
<path d="M56.449 15.5387L61.8583 23.4952C61.8632 23.5023 61.8697 23.508 61.8773 23.5119C61.885 23.5159 61.8935 23.518 61.9022 23.518C61.9109 23.518 61.9195 23.5159 61.9274 23.5119C61.9353 23.508 61.9421 23.5023 61.9474 23.4952L62.3009 23.0396C62.6597 22.8417 62.9809 22.5951 63.2643 22.2998C63.5499 22.0024 63.845 21.7135 64.1497 21.4331C64.2675 21.3241 64.432 21.1256 64.6433 20.8377C64.8206 20.5943 65.0419 20.3943 65.3073 20.2377C65.3532 20.2107 65.3901 20.1733 65.414 20.1297C65.552 19.8852 65.6794 19.636 65.7962 19.382C65.9204 19.11 66.0568 18.8671 66.2054 18.6533C66.509 18.2173 66.7993 17.7728 67.0764 17.3198C67.0987 17.2828 67.1348 17.2463 67.1847 17.2103C67.2951 17.132 67.3954 17.0034 67.4857 16.8245C67.5621 16.6743 67.6932 16.543 67.879 16.4308C67.9703 16.3769 68.1401 16.315 68.3885 16.2451C68.6391 16.1763 68.8758 16.0821 69.0987 15.9625C69.276 15.8673 69.4607 15.8504 69.6529 15.9117C70.4522 16.1657 70.629 16.6653 70.1831 17.4103C70.1544 17.458 70.1337 17.4982 70.121 17.531C70.0955 17.5955 70.0706 17.64 70.0462 17.6643C69.7213 17.9861 69.4405 18.3422 69.2038 18.7327C68.9862 19.0904 68.7452 19.4302 68.4809 19.7519C68.2824 19.9932 68.1077 20.262 67.957 20.5583C67.7383 20.9859 67.4984 21.3389 67.2372 21.6172C66.6003 22.2945 66.1194 22.9396 65.7946 23.5524C65.6385 23.8455 65.3105 24.3191 64.8105 24.9732C64.7309 25.0769 64.5849 25.3071 64.3726 25.6638C64.2441 25.8786 64.0812 26.1008 63.8837 26.3305C63.2118 27.1094 62.4071 27.4211 61.4697 27.2655C61.1215 27.2073 60.7871 27.0438 60.4665 26.775C59.8646 26.2723 59.3577 25.6807 58.9458 25.0002C58.8673 24.8689 58.7622 24.7636 58.6306 24.6843C58.379 24.5329 58.1927 24.3244 58.0716 24.0588C57.8264 23.5201 57.5117 23.0327 57.1274 22.5967C56.6465 22.0538 56.3593 21.7172 56.2659 21.587C55.2914 20.2398 54.3779 18.8518 53.5255 17.423C53.5244 17.4209 53.4474 17.3119 53.2946 17.096C53.1099 16.8346 53.044 16.5287 53.0971 16.1784C53.1746 15.6641 53.4655 15.4561 53.9697 15.5545C54.1905 15.5979 54.4119 15.6006 54.6337 15.5625C55.2717 15.4545 55.8768 15.4466 56.449 15.5387Z" fill="black"/>
<path d="M62.0541 36.0855C64.0626 34.2282 65.7866 32.1803 67.2261 29.9419C67.2403 29.9204 67.2594 29.9028 67.2816 29.8906C67.3038 29.8784 67.3285 29.872 67.3535 29.8721L71.2038 29.8737C71.2325 29.8739 71.2607 29.8811 71.286 29.8947C71.3112 29.9084 71.3328 29.928 71.3488 29.9519C71.3648 29.9758 71.3747 30.0033 71.3777 30.032C71.3808 30.0607 71.3768 30.0897 71.3662 30.1165C70.7378 31.6977 70.0111 33.2016 69.1863 34.6282C68.8742 35.168 68.5079 35.6664 68.0876 36.1236C68.0527 36.1613 68.0048 36.1841 67.9538 36.1871C65.9761 36.2983 64.017 36.2845 62.0764 36.1459C62.0212 36.1427 62.0138 36.1226 62.0541 36.0855Z" fill="black"/>
<path d="M34.3567 30.4562C34.052 31.0372 34.087 31.5775 34.4618 32.077C34.5817 32.2379 34.6629 32.4162 34.7054 32.612C34.7967 33.0407 34.9278 33.4476 35.0987 33.8328C35.2834 34.2519 35.3731 34.5419 35.3678 34.7028C35.354 35.0806 35.1327 35.3457 34.7038 35.4981C34.5299 35.559 34.366 35.5762 34.2356 35.5473C33.8758 35.4669 33.5685 35.3076 33.3137 35.0695C33.285 35.042 33.1624 34.8599 32.9458 34.5234C32.7059 34.1519 32.3418 34.0413 31.8535 34.1916C31.1836 33.0158 30.6024 31.7929 30.1099 30.5229C30.1056 30.5123 30.0547 30.4065 29.957 30.2054C29.8307 29.944 29.9304 29.8244 30.2563 29.8466C30.5016 29.8635 30.6343 29.872 30.6544 29.872C31.6258 29.8678 32.5966 29.8704 33.5669 29.8799C33.7728 29.881 33.9326 29.9292 34.0462 30.0244C34.182 30.1376 34.2855 30.2816 34.3567 30.4562Z" fill="black"/>
<path d="M34.3567 30.4563C35.638 32.5412 37.2044 34.3912 39.0557 36.0062C39.1842 36.1173 39.163 36.1761 38.9921 36.1824C37.0812 36.2459 35.1773 36.247 33.2803 36.1856C33.2293 36.1836 33.1808 36.1614 33.1449 36.1237C32.6099 35.5575 32.1794 34.9135 31.8535 34.1917C32.3418 34.0414 32.706 34.152 32.9459 34.5235C33.1624 34.86 33.285 35.0421 33.3137 35.0696C33.5685 35.3077 33.8758 35.467 34.2357 35.5474C34.366 35.5763 34.53 35.5591 34.7038 35.4982C35.1327 35.3458 35.354 35.0807 35.3678 34.7029C35.3732 34.542 35.2835 34.252 35.0987 33.8329C34.9278 33.4477 34.7967 33.0408 34.7054 32.6121C34.663 32.4163 34.5818 32.238 34.4618 32.0771C34.0871 31.5776 34.052 31.0373 34.3567 30.4563Z" fill="black"/>
</svg>
