<svg width="48" height="49" viewBox="0 0 48 49" fill="none" xmlns="http://www.w3.org/2000/svg">
<rect width="48" height="48" transform="translate(0 0.21582)" fill="white" fill-opacity="0.8"/>
<path d="M26 42.2158V46.2158H22V42.2158H6C4.89544 42.2158 4 41.3204 4 40.2158V8.21582C4 7.11126 4.89544 6.21582 6 6.21582H18C20.3894 6.21582 22.5342 7.26332 24 8.92418C25.4658 7.26332 27.6106 6.21582 30 6.21582H42C43.1046 6.21582 44 7.11126 44 8.21582V40.2158C44 41.3204 43.1046 42.2158 42 42.2158H26ZM40 38.2158V10.2158H30C27.7908 10.2158 26 12.0067 26 14.2158V38.2158H40ZM22 38.2158V14.2158C22 12.0067 20.2092 10.2158 18 10.2158H8V38.2158H22Z" fill="black" fill-opacity="0.8"/>
</svg>
