<svg width="48" height="49" viewBox="0 0 48 49" fill="none" xmlns="http://www.w3.org/2000/svg">
<path d="M40 26.5481C36.6442 26.5481 33.5028 27.4665 30.8136 29.0655C33.1816 31.8357 35.0538 35.0423 36.293 38.5481H40V26.5481ZM32.0074 38.5481C28.0892 29.1523 18.8158 22.5481 8 22.5481V38.5481H32.0074ZM8 18.5481C15.6583 18.5481 22.6464 21.4177 27.9476 26.1403C31.4094 23.8691 35.5504 22.5481 40 22.5481V6.5481H42.0164C43.112 6.5481 44 7.438 44 8.5349V40.5613C44 41.6585 43.0894 42.5481 42.0164 42.5481H5.9836C4.8881 42.5481 4 41.6583 4 40.5613V8.5349C4 7.43762 4.91062 6.5481 5.9836 6.5481H12V2.5481H16V10.5481H8V18.5481ZM36 2.5481V10.5481H20V6.5481H32V2.5481H36ZM33 20.5481C31.3432 20.5481 30 19.205 30 17.5481C30 15.8912 31.3432 14.5481 33 14.5481C34.6568 14.5481 36 15.8912 36 17.5481C36 19.205 34.6568 20.5481 33 20.5481Z" fill="black" fill-opacity="0.8"/>
</svg>
