<svg width="48" height="48" viewBox="0 0 48 48" fill="none" xmlns="http://www.w3.org/2000/svg">
<path d="M4.5 31.5L14.818 21.182C15.2359 20.7641 15.7319 20.4327 16.2779 20.2065C16.8239 19.9804 17.409 19.864 18 19.864C18.591 19.864 19.1761 19.9804 19.7221 20.2065C20.2681 20.4327 20.7641 20.7641 21.182 21.182L31.5 31.5M28.5 28.5L31.318 25.682C31.7359 25.2641 32.2319 24.9327 32.7779 24.7065C33.3239 24.4804 33.909 24.364 34.5 24.364C35.091 24.364 35.6761 24.4804 36.2221 24.7065C36.7681 24.9327 37.2641 25.2641 37.682 25.682L43.5 31.5M7.5 39H40.5C41.2956 39 42.0587 38.6839 42.6213 38.1213C43.1839 37.5587 43.5 36.7956 43.5 36V12C43.5 11.2044 43.1839 10.4413 42.6213 9.87868C42.0587 9.31607 41.2956 9 40.5 9H7.5C6.70435 9 5.94129 9.31607 5.37868 9.87868C4.81607 10.4413 4.5 11.2044 4.5 12V36C4.5 36.7956 4.81607 37.5587 5.37868 38.1213C5.94129 38.6839 6.70435 39 7.5 39ZM28.5 16.5H28.516V16.516H28.5V16.5ZM29.25 16.5C29.25 16.6989 29.171 16.8897 29.0303 17.0303C28.8897 17.171 28.6989 17.25 28.5 17.25C28.3011 17.25 28.1103 17.171 27.9697 17.0303C27.829 16.8897 27.75 16.6989 27.75 16.5C27.75 16.3011 27.829 16.1103 27.9697 15.9697C28.1103 15.829 28.3011 15.75 28.5 15.75C28.6989 15.75 28.8897 15.829 29.0303 15.9697C29.171 16.1103 29.25 16.3011 29.25 16.5Z" stroke="url(#paint0_linear_128_228)" stroke-width="3" stroke-linecap="round" stroke-linejoin="round"/>
<defs>
<linearGradient id="paint0_linear_128_228" x1="4.5" y1="9" x2="33.4963" y2="46.6951" gradientUnits="userSpaceOnUse">
<stop stop-color="#008AEF"/>
<stop offset="0.15" stop-color="#6E55EA"/>
<stop offset="0.26" stop-color="#8244C0"/>
<stop offset="0.39" stop-color="#CF008D"/>
<stop offset="0.54" stop-color="#FF0268"/>
<stop offset="0.69" stop-color="#FF3A00"/>
<stop offset="0.83" stop-color="#FF4E00"/>
<stop offset="1" stop-color="#FF6D00"/>
</linearGradient>
</defs>
</svg>
